<svg width="50" height="40" viewBox="0 0 50 40" fill="none" xmlns="http://www.w3.org/2000/svg">
<g clip-path="url(#clip0)">
<path d="M6.66162 33.1682L19.6578 16.6185L19.7601 17.4699L20.1857 17.4187L20.2881 18.27L21.3315 17.9328L8.33535 34.4826L6.66162 33.1682Z" fill="#3D3D3D"/>
<path d="M8.33527 34.4834L21.3314 17.9337L21.616 18.5424L22.0416 18.4912L22.144 19.3425L23.0052 19.248L10.009 35.7977L8.33527 34.4834Z" fill="#B0AEAE"/>
<rect x="3.71265" y="26.9333" width="2.12812" height="15.9609" transform="rotate(-51.8547 3.71265 26.9333)" fill="#3D3D3D"/>
<rect x="5.02704" y="25.259" width="2.12812" height="15.9609" transform="rotate(-51.8547 5.02704 25.259)" fill="#B0AEAE"/>
<rect x="4.24951" y="21.9429" width="2.12812" height="21.2812" transform="rotate(-51.8547 4.24951 21.9429)" fill="#3D3D3D"/>
<rect x="5.56354" y="20.2683" width="2.12812" height="21.2812" transform="rotate(-51.8547 5.56354 20.2683)" fill="#B0AEAE"/>
<path d="M45.9462 17.4504L25.0109 17.9985L24.4143 17.395L25.0045 16.773L24.6935 16.4779L24.9807 15.8639L45.8905 15.323L45.9462 17.4504Z" fill="#3D3D3D"/>
<path d="M45.891 15.3225L24.981 15.8699L24.0559 15.2816L24.6461 14.6596L24.3351 14.3645L24.7998 13.7458L45.8353 13.1951L45.891 15.3225Z" fill="#B0AEAE"/>
<rect width="2.12812" height="15.9609" transform="matrix(-0.999659 0.0261101 0.0261101 0.999659 42.4715 7.13989)" fill="#3D3D3D"/>
<rect width="2.12812" height="15.9609" transform="matrix(-0.999659 0.0261101 0.0261101 0.999659 40.3438 7.19556)" fill="#B0AEAE"/>
<rect width="2.12812" height="21.2812" transform="matrix(-0.999659 0.0261101 0.0261101 0.999659 38.1473 4.59277)" fill="#3D3D3D"/>
<rect width="2.12812" height="21.2812" transform="matrix(-0.999659 0.0261101 0.0261101 0.999659 36.0194 4.64722)" fill="#B0AEAE"/>
<path d="M21.1184 14.0901C21.2093 14.1491 21.1546 14.2904 21.0476 14.2727L19.3765 13.996C19.3139 13.9856 19.2766 13.9203 19.2996 13.8612L19.5491 13.2168C19.572 13.1577 19.6435 13.1345 19.6967 13.169L21.1184 14.0901Z" fill="#C4C4C4"/>
<path d="M21.2094 12.8831C21.2498 12.9854 21.1195 13.0684 21.0438 12.9887L20.2274 12.1283C20.1842 12.0827 20.1932 12.009 20.2462 11.9752L20.6268 11.7324C20.6798 11.6986 20.7505 11.7215 20.7736 11.78L21.2094 12.8831Z" fill="#848080"/>
<path d="M22.226 13.0044C22.2077 13.1144 22.0502 13.1164 22.0291 13.0068L21.6761 11.1689C21.6644 11.1078 21.7108 11.0509 21.7731 11.0501L22.433 11.0418C22.4953 11.0411 22.5431 11.0968 22.5329 11.1582L22.226 13.0044Z" fill="#C4C4C4"/>
</g>
<defs>
<clipPath id="clip0">
<rect width="50" height="40" fill="white"/>
</clipPath>
</defs>
</svg>
